# xmcd
#
# Track frame offsets:
#	150
#	13984
#	26042
#	40048
#	52125
#	63498
#	74181
#	85564
#	95865
#	106243
#	117004
#	127687
#	137204
#	146826
#	156678
#	168271
#	179495
#	191175
#	203203
#	212953
#	225855
#	234701
#	244495
#	256313
#	265563
#	274552
#
# Disc length: 3818 seconds
#
# Revision: 0
# Processed by: cddbd v1.5.1PL2 Copyright (c) Steve Scherf et al.
# Submitted via: EasyCDDAExtractor 9.1.3.1
#
DISCID=8b0ee81a
DTITLE=Various Artist - New Orleans Guitar (1947-55) - Disc D (T-Bone Walker 
DTITLE=& Pee Wee Crayton, 1953-55)
DYEAR=2006
DGENRE=Blues
TTITLE0=T-Bone Walker - Long Distance Blues
TTITLE1=T-Bone Walker - Got No Use For You
TTITLE2=T-Bone Walker - I'm Still In Love With You
TTITLE3=T-Bone Walker - Railroad Station Blues
TTITLE4=T-Bone Walker - When The Sun Goes Down
TTITLE5=T-Bone Walker - Pony Tail
TTITLE6=T-Bone Walker - Wanderin' Heart
TTITLE7=T-Bone Walker - I'll Always Be In Love With You
TTITLE8=Pee Wee Crayton - Win-O
TTITLE9=Pee Wee Crayton - Do Unto Others
TTITLE10=Pee Wee Crayton - Every Dog Has His Day
TTITLE11=Pee Wee Crayton - Hurry, Hurry
TTITLE12=Pee Wee Crayton - Eyes Full Of Tears
TTITLE13=Pee Wee Crayton - I Need Your Love
TTITLE14=Pee Wee Crayton - You Know, Yeah
TTITLE15=Pee Wee Crayton - Runnin' Wild
TTITLE16=Pee Wee Crayton - My Idea About You
TTITLE17=Pee Wee Crayton - I Got News For You
TTITLE18=Pee Wee Crayton - Baby Don't You Cry
TTITLE19=Pee Wee Crayton - Don't Break My Heart
TTITLE20=Pee Wee Crayton - Wondering Why
TTITLE21=Pee Wee Crayton - Yours Truly
TTITLE22=Pee Wee Crayton - I Must Go On
TTITLE23=Pee Wee Crayton - Be Faithful
TTITLE24=Pee Wee Crayton - Blues Before Dawn
TTITLE25=Pee Wee Crayton - Don't Go
EXTD=
EXTT0=
EXTT1=
EXTT2=
EXTT3=
EXTT4=
EXTT5=
EXTT6=
EXTT7=
EXTT8=
EXTT9=
EXTT10=
EXTT11=
EXTT12=
EXTT13=
EXTT14=
EXTT15=
EXTT16=
EXTT17=
EXTT18=
EXTT19=
EXTT20=
EXTT21=
EXTT22=
EXTT23=
EXTT24=
EXTT25=
PLAYORDER=
